<?xml version="1.0" encoding="utf-8"?>
<!-- Generator: Adobe Illustrator 16.0.0, SVG Export Plug-In . SVG Version: 6.00 Build 0)  -->
<!DOCTYPE svg PUBLIC "-//W3C//DTD SVG 1.1//EN" "http://www.w3.org/Graphics/SVG/1.1/DTD/svg11.dtd">
<svg version="1.1" id="Layer_1" xmlns="http://www.w3.org/2000/svg" xmlns:xlink="http://www.w3.org/1999/xlink" x="0px" y="0px"
	 width="130.984px" height="42px" viewBox="0 0 130.984 42" enable-background="new 0 0 130.984 42" xml:space="preserve">
<g>
	<g>
		<defs>
			<path id="SVGID_1_" d="M28.846,18.162c2.4,0,3.623,1.246,4.292,2.861L30.9,21.877c-0.277-1.108-0.992-1.777-2.169-1.777
				c-1.731,0-2.493,1.685-2.493,3.508c0,1.8,0.715,3.484,2.516,3.484c1.223,0,1.777-0.715,2.146-1.662l2.285,0.877
				c-0.831,1.523-2.054,2.746-4.385,2.746c-3.115,0-5.1-2.169-5.1-5.446C23.677,20.354,25.662,18.162,28.846,18.162z"/>
		</defs>
		<clipPath id="SVGID_2_">
			<use xlink:href="#SVGID_1_"  overflow="visible"/>
		</clipPath>
		<g clip-path="url(#SVGID_2_)">
			<defs>
				<rect id="SVGID_3_" x="-228" y="-12" width="1440" height="900"/>
			</defs>
			<clipPath id="SVGID_4_">
				<use xlink:href="#SVGID_3_"  overflow="visible"/>
			</clipPath>
			<rect x="18.7" y="13.162" clip-path="url(#SVGID_4_)" fill="#FFFFFF" width="19.485" height="20.892"/>
		</g>
	</g>
	<g>
		<defs>
			<path id="SVGID_5_" d="M43.546,28.777h-2.354v-1.546c-0.623,1.062-1.615,1.823-3.208,1.823c-1.961,0-3.6-1.154-3.6-3.461v-7.154
				h2.469v6.554c0,1.477,0.923,2.054,1.869,2.054c1.2,0,2.354-1.062,2.354-3.116v-5.469h2.469V28.777z"/>
		</defs>
		<clipPath id="SVGID_6_">
			<use xlink:href="#SVGID_5_"  overflow="visible"/>
		</clipPath>
		<g clip-path="url(#SVGID_6_)">
			<defs>
				<rect id="SVGID_7_" x="-228" y="-12" width="1440" height="900"/>
			</defs>
			<clipPath id="SVGID_8_">
				<use xlink:href="#SVGID_7_"  overflow="visible"/>
			</clipPath>
			<rect x="29.385" y="13.438" clip-path="url(#SVGID_8_)" fill="#FFFFFF" width="19.161" height="20.615"/>
		</g>
	</g>
	<g>
		<defs>
			<path id="SVGID_9_" d="M62.262,22.546h4.846c-0.069-1.639-1.016-2.585-2.4-2.585C63.254,19.961,62.4,21.046,62.262,22.546z
				 M69.231,26.516c-0.808,1.546-2.239,2.562-4.408,2.562c-3.162,0-5.123-2.192-5.123-5.469c0-3.254,2.007-5.423,5.031-5.423
				c3.323,0,4.869,2.516,4.869,5.331v0.692h-7.385c0.069,1.546,0.738,3.023,2.584,3.023c1.27,0,1.869-0.646,2.285-1.546
				L69.231,26.516z"/>
		</defs>
		<clipPath id="SVGID_10_">
			<use xlink:href="#SVGID_9_"  overflow="visible"/>
		</clipPath>
		<g clip-path="url(#SVGID_10_)">
			<defs>
				<rect id="SVGID_11_" x="-228" y="-12" width="1440" height="900"/>
			</defs>
			<clipPath id="SVGID_12_">
				<use xlink:href="#SVGID_11_"  overflow="visible"/>
			</clipPath>
			<rect x="54.7" y="13.185" clip-path="url(#SVGID_12_)" fill="#FFFFFF" width="19.9" height="20.893"/>
		</g>
	</g>
	<g>
		<defs>
			<path id="SVGID_13_" d="M71.1,18.438h2.377v1.569c0.6-1.062,1.638-1.846,3.254-1.846c2.007,0,3.669,1.154,3.669,3.484v7.131
				h-2.492v-6.554c0-1.477-0.969-2.054-1.916-2.054c-1.246,0-2.4,1.062-2.4,3.116v5.469H71.1V18.438z"/>
		</defs>
		<clipPath id="SVGID_14_">
			<use xlink:href="#SVGID_13_"  overflow="visible"/>
		</clipPath>
		<g clip-path="url(#SVGID_14_)">
			<defs>
				<rect id="SVGID_15_" x="-228" y="-12" width="1440" height="900"/>
			</defs>
			<clipPath id="SVGID_16_">
				<use xlink:href="#SVGID_15_"  overflow="visible"/>
			</clipPath>
			<rect x="66.1" y="13.162" clip-path="url(#SVGID_16_)" fill="#FFFFFF" width="19.3" height="20.615"/>
		</g>
	</g>
	<g>
		<defs>
			<path id="SVGID_17_" d="M86.908,18.162c2.4,0,3.623,1.246,4.292,2.861l-2.239,0.854c-0.277-1.108-0.992-1.777-2.169-1.777
				c-1.731,0-2.493,1.685-2.493,3.508c0,1.8,0.716,3.484,2.516,3.484c1.223,0,1.777-0.715,2.146-1.662l2.285,0.877
				c-0.831,1.523-2.054,2.746-4.385,2.746c-3.115,0-5.1-2.169-5.1-5.446C81.738,20.354,83.7,18.162,86.908,18.162z"/>
		</defs>
		<clipPath id="SVGID_18_">
			<use xlink:href="#SVGID_17_"  overflow="visible"/>
		</clipPath>
		<g clip-path="url(#SVGID_18_)">
			<defs>
				<rect id="SVGID_19_" x="-228" y="-12" width="1440" height="900"/>
			</defs>
			<clipPath id="SVGID_20_">
				<use xlink:href="#SVGID_19_"  overflow="visible"/>
			</clipPath>
			<rect x="76.761" y="13.162" clip-path="url(#SVGID_20_)" fill="#FFFFFF" width="19.484" height="20.892"/>
		</g>
	</g>
	<g>
		<defs>
			<path id="SVGID_21_" d="M107.562,15.6c0.646,0,1.176,0.3,1.477,0.6l0.762-2.054c-0.6-0.369-1.568-0.577-2.492-0.577
				c-1.777,0-3.693,0.969-3.693,3.854v1.039h-4.222c0,0-2.308,6.3-2.677,7.546h-0.022c-0.416-1.246-2.724-7.546-2.724-7.546h-2.539
				l4.062,10.362l-1.708,4.338h2.423l4.87-12.877h2.561V28.8h2.471v-8.515h1.869l0.691-1.823h-2.561V17.4
				C106.108,16.108,106.708,15.6,107.562,15.6z"/>
		</defs>
		<clipPath id="SVGID_22_">
			<use xlink:href="#SVGID_21_"  overflow="visible"/>
		</clipPath>
		<g clip-path="url(#SVGID_22_)">
			<defs>
				<rect id="SVGID_23_" x="-228" y="-12" width="1440" height="900"/>
			</defs>
			<clipPath id="SVGID_24_">
				<use xlink:href="#SVGID_23_"  overflow="visible"/>
			</clipPath>
			<rect x="86.431" y="8.569" clip-path="url(#SVGID_24_)" fill="#FFFFFF" width="28.369" height="29.592"/>
		</g>
	</g>
	<g>
		<defs>
			<path id="SVGID_25_" d="M115.614,24.969v-0.854c-2.561,0-4.268,0.485-4.268,1.846c0,0.831,0.715,1.27,1.707,1.27
				C114.347,27.231,115.614,26.4,115.614,24.969z M115.661,27.438c-0.67,0.969-1.662,1.615-3.301,1.615
				c-2.076,0-3.461-1.131-3.461-2.954c0-2.769,3.186-3.6,6.715-3.6v-0.646c0-1.085-0.6-1.846-1.891-1.846
				c-1.316,0-1.939,0.738-1.963,1.615l-2.4-0.346c0.209-2.031,2.17-3.115,4.455-3.115c2.492,0,4.223,1.269,4.223,3.761v5.446
				c0,0.623,0.115,1.016,0.23,1.408h-2.4C115.776,28.592,115.661,28.016,115.661,27.438z"/>
		</defs>
		<clipPath id="SVGID_26_">
			<use xlink:href="#SVGID_25_"  overflow="visible"/>
		</clipPath>
		<g clip-path="url(#SVGID_26_)">
			<defs>
				<rect id="SVGID_27_" x="-228" y="-12" width="1440" height="900"/>
			</defs>
			<clipPath id="SVGID_28_">
				<use xlink:href="#SVGID_27_"  overflow="visible"/>
			</clipPath>
			<rect x="103.899" y="13.162" clip-path="url(#SVGID_28_)" fill="#FFFFFF" width="19.369" height="20.892"/>
		</g>
	</g>
	<g>
		<defs>
			<rect id="SVGID_29_" x="119.931" y="18.438" width="2.492" height="10.338"/>
		</defs>
		<clipPath id="SVGID_30_">
			<use xlink:href="#SVGID_29_"  overflow="visible"/>
		</clipPath>
		<g clip-path="url(#SVGID_30_)">
			<defs>
				<rect id="SVGID_31_" x="-228" y="-12" width="1440" height="900"/>
			</defs>
			<clipPath id="SVGID_32_">
				<use xlink:href="#SVGID_31_"  overflow="visible"/>
			</clipPath>
			<rect x="114.931" y="13.438" clip-path="url(#SVGID_32_)" fill="#FFFFFF" width="12.492" height="20.338"/>
		</g>
	</g>
	<g>
		<defs>
			<path id="SVGID_33_" d="M130.2,20.492c-0.277-0.138-0.6-0.208-0.9-0.208c-1.199,0-2.516,1.039-2.516,3.277v5.215h-2.492V18.438
				h2.33v1.685c0.578-1.315,1.639-1.961,3.047-1.961c0.416,0,0.9,0.069,1.314,0.23L130.2,20.492z"/>
		</defs>
		<clipPath id="SVGID_34_">
			<use xlink:href="#SVGID_33_"  overflow="visible"/>
		</clipPath>
		<g clip-path="url(#SVGID_34_)">
			<defs>
				<rect id="SVGID_35_" x="-228" y="-12" width="1440" height="900"/>
			</defs>
			<clipPath id="SVGID_36_">
				<use xlink:href="#SVGID_35_"  overflow="visible"/>
			</clipPath>
			<rect x="119.292" y="13.162" clip-path="url(#SVGID_36_)" fill="#FFFFFF" width="16.691" height="20.615"/>
		</g>
	</g>
	<g>
		<defs>
			<path id="SVGID_37_" d="M51.346,20.492c-0.277-0.138-0.6-0.208-0.9-0.208c-1.2,0-2.516,1.039-2.516,3.277v5.215h-2.492V18.438
				h2.331v1.685c0.577-1.315,1.639-1.961,3.046-1.961c0.416,0,0.9,0.069,1.315,0.23L51.346,20.492z"/>
		</defs>
		<clipPath id="SVGID_38_">
			<use xlink:href="#SVGID_37_"  overflow="visible"/>
		</clipPath>
		<g clip-path="url(#SVGID_38_)">
			<defs>
				<rect id="SVGID_39_" x="-228" y="-12" width="1440" height="900"/>
			</defs>
			<clipPath id="SVGID_40_">
				<use xlink:href="#SVGID_39_"  overflow="visible"/>
			</clipPath>
			<rect x="40.438" y="13.162" clip-path="url(#SVGID_40_)" fill="#FFFFFF" width="16.692" height="20.615"/>
		</g>
	</g>
	<g>
		<defs>
			<path id="SVGID_41_" d="M58.984,20.492c-0.277-0.138-0.6-0.208-0.9-0.208c-1.2,0-2.515,1.039-2.515,3.277v5.215h-2.492V18.438
				h2.331v1.685c0.577-1.315,1.639-1.961,3.046-1.961c0.416,0,0.9,0.069,1.315,0.23L58.984,20.492z"/>
		</defs>
		<clipPath id="SVGID_42_">
			<use xlink:href="#SVGID_41_"  overflow="visible"/>
		</clipPath>
		<g clip-path="url(#SVGID_42_)">
			<defs>
				<rect id="SVGID_43_" x="-228" y="-12" width="1440" height="900"/>
			</defs>
			<clipPath id="SVGID_44_">
				<use xlink:href="#SVGID_43_"  overflow="visible"/>
			</clipPath>
			<rect x="48.077" y="13.162" clip-path="url(#SVGID_44_)" fill="#FFFFFF" width="16.692" height="20.615"/>
		</g>
	</g>
	<g>
		<defs>
			<circle id="SVGID_45_" cx="121.171" cy="14.752" r="1.592"/>
		</defs>
		<clipPath id="SVGID_46_">
			<use xlink:href="#SVGID_45_"  overflow="visible"/>
		</clipPath>
		<g clip-path="url(#SVGID_46_)">
			<defs>
				<rect id="SVGID_47_" x="-228" y="-12" width="1440" height="900"/>
			</defs>
			<clipPath id="SVGID_48_">
				<use xlink:href="#SVGID_47_"  overflow="visible"/>
			</clipPath>
			
				<rect x="114.578" y="8.16" transform="matrix(-0.5001 0.866 -0.866 -0.5001 194.5418 -82.8019)" clip-path="url(#SVGID_48_)" fill="#FFFFFF" width="13.185" height="13.184"/>
		</g>
	</g>
	<g>
		<defs>
			<circle id="SVGID_49_" cx="7.5" cy="34.5" r="7.5"/>
		</defs>
		<clipPath id="SVGID_50_">
			<use xlink:href="#SVGID_49_"  overflow="visible"/>
		</clipPath>
		<g clip-path="url(#SVGID_50_)">
			<defs>
				<rect id="SVGID_51_" x="-228" y="-12" width="1440" height="900"/>
			</defs>
			<clipPath id="SVGID_52_">
				<use xlink:href="#SVGID_51_"  overflow="visible"/>
			</clipPath>
			<rect x="-5" y="22" clip-path="url(#SVGID_52_)" fill="#599BB9" width="25" height="25"/>
		</g>
	</g>
	<g>
		<defs>
			<circle id="SVGID_53_" cx="18.5" cy="5.5" r="5.5"/>
		</defs>
		<clipPath id="SVGID_54_">
			<use xlink:href="#SVGID_53_"  overflow="visible"/>
		</clipPath>
		<g clip-path="url(#SVGID_54_)">
			<defs>
				<rect id="SVGID_55_" x="-228" y="-12" width="1440" height="900"/>
			</defs>
			<clipPath id="SVGID_56_">
				<use xlink:href="#SVGID_55_"  overflow="visible"/>
			</clipPath>
			<rect x="8" y="-5" clip-path="url(#SVGID_56_)" fill="#599BB9" width="21" height="21"/>
		</g>
	</g>
	<g>
		<defs>
			<circle id="SVGID_57_" cx="13" cy="22" r="4"/>
		</defs>
		<clipPath id="SVGID_58_">
			<use xlink:href="#SVGID_57_"  overflow="visible"/>
		</clipPath>
		<g clip-path="url(#SVGID_58_)">
			<defs>
				<rect id="SVGID_59_" x="-228" y="-12" width="1440" height="900"/>
			</defs>
			<clipPath id="SVGID_60_">
				<use xlink:href="#SVGID_59_"  overflow="visible"/>
			</clipPath>
			<rect x="4" y="13" clip-path="url(#SVGID_60_)" fill="#599BB9" width="18" height="18"/>
		</g>
	</g>
	<g>
		<defs>
			<circle id="SVGID_61_" cx="15" cy="15" r="2"/>
		</defs>
		<clipPath id="SVGID_62_">
			<use xlink:href="#SVGID_61_"  overflow="visible"/>
		</clipPath>
		<g clip-path="url(#SVGID_62_)">
			<defs>
				<rect id="SVGID_63_" x="-228" y="-12" width="1440" height="900"/>
			</defs>
			<clipPath id="SVGID_64_">
				<use xlink:href="#SVGID_63_"  overflow="visible"/>
			</clipPath>
			<rect x="8" y="8" clip-path="url(#SVGID_64_)" fill="#599BB9" width="14" height="14"/>
		</g>
	</g>
</g>
</svg>
